<mxfile host="app.diagrams.net" modified="2024-06-11T10:15:18.273Z" agent="Mozilla/5.0 (Macintosh; Intel Mac OS X 10_15_7) AppleWebKit/537.36 (KHTML, like Gecko) Chrome/125.0.0.0 Safari/537.36" version="24.4.13" etag="2U01OmG37i0zcTuaLGSZ" type="github">
  <diagram name="Page-1" id="f3FqWQZ-pkaQR2TXcsZB">
    <mxGraphModel>
      <root>
        <mxCell id="0" />
        <mxCell id="1" parent="0" />
      </root>
    </mxGraphModel>
  </diagram>
</mxfile>
